<?xml version="1.0" encoding="utf-8"?>
<!-- Generator: Adobe Illustrator 23.0.3, SVG Export Plug-In . SVG Version: 6.00 Build 0)  -->
<svg version="1.1" id="Layer_1" xmlns="http://www.w3.org/2000/svg" xmlns:xlink="http://www.w3.org/1999/xlink" x="0px" y="0px"
	 viewBox="0 0 617 87" style="enable-background:new 0 0 617 87;" xml:space="preserve">
<style type="text/css">
	.st0{fill-rule:evenodd;clip-rule:evenodd;fill:#181818;}
</style>
<title>Artboard 1</title>
<g id="Page-1">
	<g id="CN_LOGOS">
		<g id="Group-29">
			<g id="Group-6">
				<g>
					<path id="Fill-4" class="st0" d="M46.5,79.8c-3.6,3.2-8.2,5.1-13,5.2c-15.4-0.1-18.9-13-18.9-30c0-17,3.3-30,18.7-30
						c4.7,0,9.2,1.9,12.5,5.3l8.5,14h0.5V24.6h-0.5l-8,4.1c-3.6-3.1-8.2-4.9-13-5C18.5,23.8,0.9,35.1,0.9,55s17.2,31.3,32.6,31.3
						c4.9-0.1,9.6-1.9,13.4-5l8.3,4.1h0.5V64.8h-0.5L46.5,79.8z"/>
				</g>
			</g>
			<path id="Fill-7" class="st0" d="M96.6,23.8C82.1,23.8,65,36,65,55s17.1,31.3,31.6,31.3c14.5,0,31.6-12.2,31.6-31.3
				S111,23.8,96.6,23.8 M96.6,85c-14.7,0-18.1-12.1-18.1-30c0-17.8,3.4-30,18.1-30c14.7,0,18.1,12.1,18.1,30
				C114.6,72.8,111.3,85,96.6,85"/>
			<g id="Group-11">
				<g>
					<polygon id="Fill-9" class="st0" points="178.9,24.9 178.9,25.9 186.6,25.9 186.6,64.2 186.5,64.2 158.9,24.9 135.1,24.9 
						135.1,25.9 142.9,25.9 142.9,84.1 135.1,84.1 135.1,85.1 152.1,85.1 152.1,84.1 144.3,84.1 144.3,25.9 144.4,25.9 187.7,86.3 
						188.1,86.3 188.1,25.9 195.8,25.9 195.8,24.9 					"/>
				</g>
			</g>
			<path id="Fill-12" class="st0" d="M229.4,24.9h-26.8v1h7.7v58.2h-7.7v1h26.8c13.3,0,36.1-5.8,36.1-30.5S242.8,24.9,229.4,24.9
				 M229.2,84.1h-6.5V25.9h6.5c15.8,0,23,10.8,23,29.1S244.9,84.1,229.2,84.1"/>
			<path id="Fill-14" class="st0" d="M315.2,84.1h-22.8V53.4h11.5c3.8,3,8.2,11.7,8.2,11.7h0.5V40.5H312c0,0-4.4,8.7-8.2,11.7h-11.5
				V25.9h20.4c5.9,3.9,11.1,15.2,11.1,15.2h0.5V24.9h-52v1h7.8v58.2h-7.8v1h53.7V64.9h-0.5C325.6,64.9,320.4,78.3,315.2,84.1"/>
			<g id="Group-18">
				<g>
					<polygon id="Fill-16" class="st0" points="313.6,0.5 294.4,16.3 294.6,16.6 314.2,12.1 312.6,7.8 313.9,0.8 					"/>
				</g>
			</g>
			<g id="Group-21">
				<g>
					<polygon id="Fill-19" class="st0" points="420.5,24.9 420.5,25.9 428.3,25.9 428.3,64.2 428.1,64.2 400.5,24.9 376.7,24.9 
						376.7,25.9 384.5,25.9 384.5,84.1 376.7,84.1 376.7,85.1 393.7,85.1 393.7,84.1 385.9,84.1 385.9,25.9 386.1,25.9 429.3,86.3 
						429.7,86.3 429.7,25.9 437.5,25.9 437.5,24.9 					"/>
				</g>
			</g>
			<path id="Fill-22" class="st0" d="M469.6,22.8l-26.1,61.3h-7.2v1h16.2v-1H445l9.6-22.8h19.6l10.2,22.8h-7.8v1h28.3v-1h-7.2
				L470,22.8H469.6z M464.2,38.7l9.6,21.5H455L464.2,38.7z"/>
			<path id="Fill-24" class="st0" d="M540,49.8l-11.9-4c-5.9-2-10.8-4.9-10.8-10.6c0-6.5,5.2-10.1,13.1-10.1c4.9,0,8,1.3,10.9,4
				l8.4,13.9h0.5V23.8h-0.5l-8,4c-3.2-2.7-7.2-4.1-11.4-4c-11.5,0-19,7.5-19.1,18c0.1,8.5,6,12.9,12.8,15.4l12.1,4.4
				c6.4,2.3,10.8,5.1,10.8,11.4c0,5.9-4,11.9-14.5,12c-4.9-0.1-10.5-2.1-13.8-5.3l-9.1-15.2h-0.5l0.4,20.8h0.5l8.2-4.4
				c4.1,3.2,9.1,5.1,14.3,5.2c13.2,0,21.8-9.3,21.8-19.5C554.4,56.8,547.4,52.3,540,49.8"/>
			<g id="Group-28">
				<g>
					<path id="Fill-26" class="st0" d="M560.3,24.9v18.7h0.5c0,0,5.6-11.9,10.8-17.7h10.5v58.2h-9.5v1h31.2v-1h-9.5V25.9h10.5
						c5.3,5.8,10.8,17.7,10.8,17.7h0.5V24.9H560.3z"/>
				</g>
			</g>
		</g>
	</g>
</g>
</svg>
